<svg width="480" height="511" xmlns="http://www.w3.org/2000/svg" xmlns:xlink="http://www.w3.org/1999/xlink" xml:space="preserve" overflow="hidden"><defs><clipPath id="clip0"><rect x="312" y="1048" width="480" height="511"/></clipPath></defs><g clip-path="url(#clip0)" transform="translate(-312 -1048)"><path d="M464 1119.67C464 1093.34 485.342 1072 511.668 1072L702.332 1072C728.659 1072 750 1093.34 750 1119.67L750 1487.33C750 1513.66 728.659 1535 702.332 1535L511.668 1535C485.342 1535 464 1513.66 464 1487.33Z" stroke="#000000" stroke-width="48.125" stroke-linejoin="round" stroke-miterlimit="10" fill="none" fill-rule="evenodd"/><path d="M312 1283.25 639.352 1283.25 639.352 1310.75 312 1310.75ZM563.781 1237 666.641 1297 563.78 1357C557.221 1360.83 548.802 1358.61 544.975 1352.05 541.149 1345.49 543.365 1337.07 549.924 1333.25L632.424 1285.12 632.424 1308.88 549.924 1260.75C543.365 1256.93 541.149 1248.51 544.975 1241.95 548.802 1235.39 557.221 1233.17 563.781 1237Z"/><rect x="552" y="1401" width="115" height="91.9998"/></g></svg>