<svg width="480" height="510" xmlns="http://www.w3.org/2000/svg" xmlns:xlink="http://www.w3.org/1999/xlink" xml:space="preserve" overflow="hidden"><defs><clipPath id="clip0"><rect x="1494" y="1054" width="480" height="510"/></clipPath></defs><g clip-path="url(#clip0)" transform="translate(-1494 -1054)"><path d="M1646 1125.67C1646 1099.34 1667.34 1078 1693.67 1078L1884.33 1078C1910.66 1078 1932 1099.34 1932 1125.67L1932 1492.33C1932 1518.66 1910.66 1540 1884.33 1540L1693.67 1540C1667.34 1540 1646 1518.66 1646 1492.33Z" stroke="#275791" stroke-width="48.125" stroke-linejoin="round" stroke-miterlimit="10" fill="#FFFFFF" fill-rule="evenodd"/><path d="M1494 1288.25 1821.35 1288.25 1821.35 1315.75 1494 1315.75ZM1745.78 1242 1848.64 1302 1745.78 1362C1739.22 1365.83 1730.8 1363.61 1726.97 1357.05 1723.15 1350.49 1725.36 1342.07 1731.92 1338.25L1814.42 1290.12 1814.42 1313.88 1731.92 1265.75C1725.36 1261.93 1723.15 1253.51 1726.98 1246.95 1730.8 1240.39 1739.22 1238.17 1745.78 1242Z" fill="#275791"/><rect x="1734.5" y="1406.5" width="115" height="92.9998" stroke="#275791" stroke-width="9.16667" stroke-linejoin="round" stroke-miterlimit="10" fill="#275791"/></g></svg>