<svg width="650" height="510" xmlns="http://www.w3.org/2000/svg" xmlns:xlink="http://www.w3.org/1999/xlink" xml:space="preserve" overflow="hidden"><defs><clipPath id="clip0"><rect x="384" y="1788" width="650" height="510"/></clipPath></defs><g clip-path="url(#clip0)" transform="translate(-384 -1788)"><path d="M408 1859.67C408 1833.34 429.342 1812 455.668 1812L646.332 1812C672.658 1812 694 1833.34 694 1859.67L694 2226.33C694 2252.66 672.658 2274 646.332 2274L455.668 2274C429.342 2274 408 2252.66 408 2226.33Z" stroke="#000000" stroke-width="48.125" stroke-linejoin="round" stroke-miterlimit="10" fill="none" fill-rule="evenodd"/><rect x="773" y="2140" width="115" height="93.0002"/><path d="M554 2029.25 881.352 2029.25 881.352 2056.75 554 2056.75ZM805.781 1983 908.641 2043 805.78 2103C799.221 2106.83 790.802 2104.61 786.975 2098.05 783.149 2091.49 785.365 2083.07 791.924 2079.25L874.424 2031.12 874.424 2054.88 791.924 2006.75C785.365 2002.93 783.149 1994.51 786.975 1987.95 790.802 1981.39 799.221 1979.17 805.781 1983Z"/></g></svg>