<svg width="650" height="510" xmlns="http://www.w3.org/2000/svg" xmlns:xlink="http://www.w3.org/1999/xlink" xml:space="preserve" overflow="hidden"><defs><clipPath id="clip0"><rect x="2523" y="1806" width="650" height="510"/></clipPath></defs><g clip-path="url(#clip0)" transform="translate(-2523 -1806)"><path d="M2547 1877.67C2547 1851.34 2568.34 1830 2594.67 1830L2785.33 1830C2811.66 1830 2833 1851.34 2833 1877.67L2833 2244.33C2833 2270.66 2811.66 2292 2785.33 2292L2594.67 2292C2568.34 2292 2547 2270.66 2547 2244.33Z" stroke="#D9D9D9" stroke-width="48.125" stroke-linejoin="round" stroke-miterlimit="10" fill="none" fill-rule="evenodd"/><rect x="2913.5" y="2159.5" width="115" height="92.0002" stroke="#D9D9D9" stroke-width="9.16667" stroke-linejoin="round" stroke-miterlimit="10" fill="#D9D9D9"/><path d="M2693 2047.25 3020.35 2047.25 3020.35 2074.75 2693 2074.75ZM2944.78 2001 3047.64 2061 2944.78 2121C2938.22 2124.83 2929.8 2122.61 2925.98 2116.05 2922.15 2109.49 2924.36 2101.07 2930.92 2097.25L3013.42 2049.12 3013.42 2072.88 2930.92 2024.75C2924.36 2020.93 2922.15 2012.51 2925.98 2005.95 2929.8 1999.39 2938.22 1997.17 2944.78 2001Z" fill="#D9D9D9"/></g></svg>