<svg width="650" height="510" xmlns="http://www.w3.org/2000/svg" xmlns:xlink="http://www.w3.org/1999/xlink" xml:space="preserve" overflow="hidden"><defs><clipPath id="clip0"><rect x="1514" y="1806" width="650" height="510"/></clipPath></defs><g clip-path="url(#clip0)" transform="translate(-1514 -1806)"><path d="M1538 1877.67C1538 1851.34 1559.34 1830 1585.67 1830L1776.33 1830C1802.66 1830 1824 1851.34 1824 1877.67L1824 2244.33C1824 2270.66 1802.66 2292 1776.33 2292L1585.67 2292C1559.34 2292 1538 2270.66 1538 2244.33Z" stroke="#275791" stroke-width="48.125" stroke-linejoin="round" stroke-miterlimit="10" fill="none" fill-rule="evenodd"/><rect x="1904.5" y="2159.5" width="115" height="92.0002" stroke="#275791" stroke-width="9.16667" stroke-linejoin="round" stroke-miterlimit="10" fill="#275791"/><path d="M1684 2047.25 2011.35 2047.25 2011.35 2074.75 1684 2074.75ZM1935.78 2001 2038.64 2061 1935.78 2121C1929.22 2124.83 1920.8 2122.61 1916.98 2116.05 1913.15 2109.49 1915.36 2101.07 1921.92 2097.25L2004.42 2049.12 2004.42 2072.88 1921.92 2024.75C1915.36 2020.93 1913.15 2012.51 1916.98 2005.95 1920.8 1999.39 1929.22 1997.17 1935.78 2001Z" fill="#275791"/></g></svg>